<svg width="183" height="24" viewBox="0 0 183 24" fill="none" xmlns="http://www.w3.org/2000/svg">
<path d="M41.36 19L36.84 8.24H40.06L43.82 17.5H42.22L46.12 8.24H49.12L44.58 19H41.36ZM50.3931 19V8.24H53.5131V19H50.3931ZM51.9531 6.74C51.3798 6.74 50.9131 6.57333 50.5531 6.24C50.1931 5.90667 50.0131 5.49333 50.0131 5C50.0131 4.50667 50.1931 4.09333 50.5531 3.76C50.9131 3.42667 51.3798 3.26 51.9531 3.26C52.5265 3.26 52.9931 3.42 53.3531 3.74C53.7131 4.04667 53.8931 4.44667 53.8931 4.94C53.8931 5.46 53.7131 5.89333 53.3531 6.24C53.0065 6.57333 52.5398 6.74 51.9531 6.74ZM56.4088 19V8.24H59.3888V11.28L58.9688 10.4C59.2888 9.64 59.8021 9.06667 60.5088 8.68C61.2154 8.28 62.0754 8.08 63.0888 8.08V10.96C62.9554 10.9467 62.8354 10.94 62.7288 10.94C62.6221 10.9267 62.5088 10.92 62.3888 10.92C61.5354 10.92 60.8421 11.1667 60.3088 11.66C59.7888 12.14 59.5288 12.8933 59.5288 13.92V19H56.4088ZM69.715 19.16C68.4483 19.16 67.4617 18.84 66.755 18.2C66.0483 17.5467 65.695 16.58 65.695 15.3V5.86H68.815V15.26C68.815 15.7133 68.935 16.0667 69.175 16.32C69.415 16.56 69.7417 16.68 70.155 16.68C70.6483 16.68 71.0683 16.5467 71.415 16.28L72.255 18.48C71.935 18.7067 71.5483 18.88 71.095 19C70.655 19.1067 70.195 19.16 69.715 19.16ZM64.035 10.88V8.48H71.495V10.88H64.035ZM78.5464 19.16C77.6531 19.16 76.8531 18.9867 76.1464 18.64C75.4531 18.2933 74.9131 17.7667 74.5264 17.06C74.1397 16.34 73.9464 15.4267 73.9464 14.32V8.24H77.0664V13.86C77.0664 14.7533 77.2531 15.4133 77.6264 15.84C78.0131 16.2533 78.5531 16.46 79.2464 16.46C79.7264 16.46 80.1531 16.36 80.5264 16.16C80.8997 15.9467 81.1931 15.6267 81.4064 15.2C81.6197 14.76 81.7264 14.2133 81.7264 13.56V8.24H84.8464V19H81.8864V16.04L82.4264 16.9C82.0664 17.6467 81.5331 18.2133 80.8264 18.6C80.1331 18.9733 79.3731 19.16 78.5464 19.16ZM94.3369 19V16.9L94.1369 16.44V12.68C94.1369 12.0133 93.9302 11.4933 93.5169 11.12C93.1169 10.7467 92.4969 10.56 91.6569 10.56C91.0835 10.56 90.5169 10.6533 89.9569 10.84C89.4102 11.0133 88.9435 11.2533 88.5569 11.56L87.4369 9.38C88.0235 8.96667 88.7302 8.64667 89.5569 8.42C90.3835 8.19333 91.2235 8.08 92.0769 8.08C93.7169 8.08 94.9902 8.46667 95.8969 9.24C96.8035 10.0133 97.2569 11.22 97.2569 12.86V19H94.3369ZM91.0569 19.16C90.2169 19.16 89.4969 19.02 88.8969 18.74C88.2969 18.4467 87.8369 18.0533 87.5169 17.56C87.1969 17.0667 87.0369 16.5133 87.0369 15.9C87.0369 15.26 87.1902 14.7 87.4969 14.22C87.8169 13.74 88.3169 13.3667 88.9969 13.1C89.6769 12.82 90.5635 12.68 91.6569 12.68H94.5169V14.5H91.9969C91.2635 14.5 90.7569 14.62 90.4769 14.86C90.2102 15.1 90.0769 15.4 90.0769 15.76C90.0769 16.16 90.2302 16.48 90.5369 16.72C90.8569 16.9467 91.2902 17.06 91.8369 17.06C92.3569 17.06 92.8235 16.94 93.2369 16.7C93.6502 16.4467 93.9502 16.08 94.1369 15.6L94.6169 17.04C94.3902 17.7333 93.9769 18.26 93.3769 18.62C92.7769 18.98 92.0035 19.16 91.0569 19.16ZM100.081 19V4.16H103.201V19H100.081ZM111.296 19.16C110.136 19.16 109.103 18.9267 108.196 18.46C107.29 17.98 106.576 17.32 106.056 16.48C105.55 15.64 105.296 14.6867 105.296 13.62C105.296 12.54 105.55 11.5867 106.056 10.76C106.576 9.92 107.29 9.26667 108.196 8.8C109.103 8.32 110.136 8.08 111.296 8.08C112.43 8.08 113.416 8.32 114.256 8.8C115.096 9.26667 115.716 9.94 116.116 10.82L113.696 12.12C113.416 11.6133 113.063 11.24 112.636 11C112.223 10.76 111.77 10.64 111.276 10.64C110.743 10.64 110.263 10.76 109.836 11C109.41 11.24 109.07 11.58 108.816 12.02C108.576 12.46 108.456 12.9933 108.456 13.62C108.456 14.2467 108.576 14.78 108.816 15.22C109.07 15.66 109.41 16 109.836 16.24C110.263 16.48 110.743 16.6 111.276 16.6C111.77 16.6 112.223 16.4867 112.636 16.26C113.063 16.02 113.416 15.64 113.696 15.12L116.116 16.44C115.716 17.3067 115.096 17.98 114.256 18.46C113.416 18.9267 112.43 19.16 111.296 19.16ZM117.854 19V8.24H120.974V19H117.854ZM119.414 6.74C118.841 6.74 118.374 6.57333 118.014 6.24C117.654 5.90667 117.474 5.49333 117.474 5C117.474 4.50667 117.654 4.09333 118.014 3.76C118.374 3.42667 118.841 3.26 119.414 3.26C119.987 3.26 120.454 3.42 120.814 3.74C121.174 4.04667 121.354 4.44667 121.354 4.94C121.354 5.46 121.174 5.89333 120.814 6.24C120.467 6.57333 120.001 6.74 119.414 6.74ZM130.41 8.08C131.263 8.08 132.023 8.25333 132.69 8.6C133.37 8.93333 133.903 9.45333 134.29 10.16C134.676 10.8533 134.87 11.7467 134.87 12.84V19H131.75V13.32C131.75 12.4533 131.556 11.8133 131.17 11.4C130.796 10.9867 130.263 10.78 129.57 10.78C129.076 10.78 128.63 10.8867 128.23 11.1C127.843 11.3 127.536 11.6133 127.31 12.04C127.096 12.4667 126.99 13.0133 126.99 13.68V19H123.87V8.24H126.85V11.22L126.29 10.32C126.676 9.6 127.23 9.04667 127.95 8.66C128.67 8.27333 129.49 8.08 130.41 8.08ZM143.116 19.16C141.889 19.16 140.809 18.92 139.876 18.44C138.956 17.96 138.243 17.3067 137.736 16.48C137.229 15.64 136.976 14.6867 136.976 13.62C136.976 12.54 137.223 11.5867 137.716 10.76C138.223 9.92 138.909 9.26667 139.776 8.8C140.643 8.32 141.623 8.08 142.716 8.08C143.769 8.08 144.716 8.30667 145.556 8.76C146.409 9.2 147.083 9.84 147.576 10.68C148.069 11.5067 148.316 12.5 148.316 13.66C148.316 13.78 148.309 13.92 148.296 14.08C148.283 14.2267 148.269 14.3667 148.256 14.5H139.516V12.68H146.616L145.416 13.22C145.416 12.66 145.303 12.1733 145.076 11.76C144.849 11.3467 144.536 11.0267 144.136 10.8C143.736 10.56 143.269 10.44 142.736 10.44C142.203 10.44 141.729 10.56 141.316 10.8C140.916 11.0267 140.603 11.3533 140.376 11.78C140.149 12.1933 140.036 12.6867 140.036 13.26V13.74C140.036 14.3267 140.163 14.8467 140.416 15.3C140.683 15.74 141.049 16.08 141.516 16.32C141.996 16.5467 142.556 16.66 143.196 16.66C143.769 16.66 144.269 16.5733 144.696 16.4C145.136 16.2267 145.536 15.9667 145.896 15.62L147.556 17.42C147.063 17.98 146.443 18.4133 145.696 18.72C144.949 19.0133 144.089 19.16 143.116 19.16ZM164.173 8.08C165.026 8.08 165.78 8.25333 166.433 8.6C167.1 8.93333 167.62 9.45333 167.993 10.16C168.38 10.8533 168.573 11.7467 168.573 12.84V19H165.453V13.32C165.453 12.4533 165.273 11.8133 164.913 11.4C164.553 10.9867 164.046 10.78 163.393 10.78C162.94 10.78 162.533 10.8867 162.173 11.1C161.813 11.3 161.533 11.6067 161.333 12.02C161.133 12.4333 161.033 12.96 161.033 13.6V19H157.913V13.32C157.913 12.4533 157.733 11.8133 157.373 11.4C157.026 10.9867 156.526 10.78 155.873 10.78C155.42 10.78 155.013 10.8867 154.653 11.1C154.293 11.3 154.013 11.6067 153.813 12.02C153.613 12.4333 153.513 12.96 153.513 13.6V19H150.393V8.24H153.373V11.18L152.813 10.32C153.186 9.58667 153.713 9.03333 154.393 8.66C155.086 8.27333 155.873 8.08 156.753 8.08C157.74 8.08 158.6 8.33333 159.333 8.84C160.08 9.33333 160.573 10.0933 160.813 11.12L159.713 10.82C160.073 9.98 160.646 9.31333 161.433 8.82C162.233 8.32667 163.146 8.08 164.173 8.08ZM177.97 19V16.9L177.77 16.44V12.68C177.77 12.0133 177.563 11.4933 177.15 11.12C176.75 10.7467 176.13 10.56 175.29 10.56C174.716 10.56 174.15 10.6533 173.59 10.84C173.043 11.0133 172.576 11.2533 172.19 11.56L171.07 9.38C171.656 8.96667 172.363 8.64667 173.19 8.42C174.016 8.19333 174.856 8.08 175.71 8.08C177.35 8.08 178.623 8.46667 179.53 9.24C180.436 10.0133 180.89 11.22 180.89 12.86V19H177.97ZM174.69 19.16C173.85 19.16 173.13 19.02 172.53 18.74C171.93 18.4467 171.47 18.0533 171.15 17.56C170.83 17.0667 170.67 16.5133 170.67 15.9C170.67 15.26 170.823 14.7 171.13 14.22C171.45 13.74 171.95 13.3667 172.63 13.1C173.31 12.82 174.196 12.68 175.29 12.68H178.15V14.5H175.63C174.896 14.5 174.39 14.62 174.11 14.86C173.843 15.1 173.71 15.4 173.71 15.76C173.71 16.16 173.863 16.48 174.17 16.72C174.49 16.9467 174.923 17.06 175.47 17.06C175.99 17.06 176.456 16.94 176.87 16.7C177.283 16.4467 177.583 16.08 177.77 15.6L178.25 17.04C178.023 17.7333 177.61 18.26 177.01 18.62C176.41 18.98 175.636 19.16 174.69 19.16Z" fill="white"/>
<path d="M3 4.5C3 4.69891 3.07902 4.88968 3.21967 5.03033C3.36032 5.17098 3.55109 5.25 3.75 5.25H20.25C20.4489 5.25 20.6397 5.17098 20.7803 5.03033C20.921 4.88968 21 4.69891 21 4.5C21 4.30109 20.921 4.11032 20.7803 3.96967C20.6397 3.82902 20.4489 3.75 20.25 3.75H3.75C3.55109 3.75 3.36032 3.82902 3.21967 3.96967C3.07902 4.11032 3 4.30109 3 4.5ZM6 1.5C6 1.69891 6.07902 1.88968 6.21967 2.03033C6.36032 2.17098 6.55109 2.25 6.75 2.25H17.25C17.4489 2.25 17.6397 2.17098 17.7803 2.03033C17.921 1.88968 18 1.69891 18 1.5C18 1.30109 17.921 1.11032 17.7803 0.96967C17.6397 0.829018 17.4489 0.75 17.25 0.75H6.75C6.55109 0.75 6.36032 0.829018 6.21967 0.96967C6.07902 1.11032 6 1.30109 6 1.5ZM10.1475 9.864C10.034 9.79305 9.90352 9.75377 9.76969 9.75026C9.63585 9.74674 9.50352 9.77912 9.38642 9.84402C9.26933 9.90892 9.17174 10.004 9.10379 10.1193C9.03584 10.2347 9 10.3661 9 10.5V18C9 18.1339 9.03584 18.2653 9.10379 18.3807C9.17174 18.496 9.26933 18.5911 9.38642 18.656C9.50352 18.7209 9.63585 18.7533 9.76969 18.7497C9.90352 18.7462 10.034 18.707 10.1475 18.636L16.1475 14.886C16.2554 14.8186 16.3443 14.7248 16.406 14.6136C16.4676 14.5023 16.5 14.3772 16.5 14.25C16.5 14.1228 16.4676 13.9977 16.406 13.8864C16.3443 13.7752 16.2554 13.6814 16.1475 13.614L10.1475 9.864Z" fill="white"/>
<path d="M2.25 21.75C1.65326 21.75 1.08097 21.5129 0.65901 21.091C0.237053 20.669 0 20.0967 0 19.5L0 9C0 8.40326 0.237053 7.83097 0.65901 7.40901C1.08097 6.98705 1.65326 6.75 2.25 6.75H21.75C22.3467 6.75 22.919 6.98705 23.341 7.40901C23.7629 7.83097 24 8.40326 24 9V19.5C24 20.0967 23.7629 20.669 23.341 21.091C22.919 21.5129 22.3467 21.75 21.75 21.75H2.25ZM21.75 20.25C21.9489 20.25 22.1397 20.171 22.2803 20.0303C22.421 19.8897 22.5 19.6989 22.5 19.5V9C22.5 8.80109 22.421 8.61032 22.2803 8.46967C22.1397 8.32902 21.9489 8.25 21.75 8.25H2.25C2.05109 8.25 1.86032 8.32902 1.71967 8.46967C1.57902 8.61032 1.5 8.80109 1.5 9V19.5C1.5 19.6989 1.57902 19.8897 1.71967 20.0303C1.86032 20.171 2.05109 20.25 2.25 20.25H21.75Z" fill="white"/>
</svg>
